<?xml version="1.0" standalone="no"?>
<!DOCTYPE svg PUBLIC "-//W3C//DTD SVG 20010904//EN"
 "http://www.w3.org/TR/2001/REC-SVG-20010904/DTD/svg10.dtd">
<svg version="1.0" xmlns="http://www.w3.org/2000/svg"
 width="2304.000000pt" height="2304.000000pt" viewBox="0 0 2304.000000 2304.000000"
 preserveAspectRatio="xMidYMid meet">
<metadata>
Created by potrace 1.11, written by Peter Selinger 2001-2013
</metadata>
<g transform="translate(0.000000,2304.000000) scale(0.100000,-0.100000)"
fill="#000000" stroke="none">
<path d="M5780 15651 c0 -10 201 -482 243 -571 11 -25 22 -48 23 -52 1 -5 3
-10 4 -13 1 -3 3 -8 4 -12 1 -5 10 -24 19 -43 9 -19 33 -73 53 -120 20 -47 45
-105 57 -130 11 -25 22 -54 24 -65 2 -11 8 -21 13 -23 6 -2 10 -9 10 -16 0 -7
6 -26 14 -42 8 -16 35 -78 61 -139 26 -60 54 -126 63 -145 9 -19 17 -37 17
-40 0 -3 11 -27 23 -54 12 -27 22 -50 22 -52 0 -2 13 -33 30 -68 16 -36 41
-94 56 -128 14 -35 33 -79 41 -98 9 -19 23 -53 33 -75 10 -22 24 -56 33 -75 8
-19 29 -69 47 -110 18 -41 43 -99 56 -128 13 -29 24 -56 24 -60 0 -4 7 -20 16
-37 9 -16 25 -52 36 -80 11 -27 30 -73 44 -103 13 -29 35 -79 49 -112 14 -33
36 -84 50 -114 14 -30 25 -62 25 -70 0 -9 5 -16 10 -16 6 0 10 -6 10 -14 0 -8
7 -27 15 -43 8 -15 22 -46 31 -68 9 -22 22 -53 30 -70 7 -16 29 -68 49 -115
20 -47 43 -98 50 -115 41 -94 48 -110 50 -115 2 -6 9 -23 59 -139 49 -112 65
-149 83 -191 8 -19 35 -82 60 -140 25 -58 55 -127 68 -155 12 -27 48 -111 80
-185 31 -74 65 -153 75 -175 10 -22 68 -157 130 -300 62 -143 120 -278 130
-300 10 -22 37 -85 60 -140 23 -55 50 -118 60 -140 10 -22 32 -74 50 -115 18
-41 40 -93 50 -115 10 -22 39 -89 64 -150 26 -60 53 -123 61 -140 8 -16 35
-79 61 -140 25 -60 59 -138 75 -173 16 -35 29 -65 29 -68 0 -4 19 -49 58 -134
9 -19 15 -38 14 -42 -1 -5 3 -8 10 -8 6 0 9 -3 6 -6 -5 -5 11 -46 72 -179 10
-22 30 -69 45 -105 15 -36 35 -83 45 -105 10 -22 32 -74 50 -115 18 -41 40
-93 50 -115 80 -183 130 -303 130 -313 0 -7 5 -12 10 -12 6 0 10 -6 10 -12 0
-13 64 -167 101 -241 10 -22 19 -43 19 -47 0 -5 13 -37 29 -72 16 -35 44 -97
61 -138 18 -41 45 -103 61 -138 16 -34 29 -70 29 -79 0 -15 2 -15 13 2 7 11
24 45 36 75 13 30 31 73 41 95 10 22 59 137 110 255 51 118 101 235 112 260
12 25 24 54 29 65 25 66 35 85 42 85 5 0 6 4 3 8 -3 5 1 19 7 33 7 13 30 65
51 114 21 50 49 114 62 143 13 28 35 80 49 115 14 34 30 70 36 81 6 10 17 35
24 55 8 20 35 83 60 141 59 132 67 153 71 165 1 6 17 44 36 85 49 106 61 134
64 145 2 8 134 312 173 400 5 11 17 38 26 60 9 22 26 60 37 85 11 25 24 54 28
65 5 11 18 40 29 65 11 25 41 95 66 155 86 202 236 550 255 590 28 60 53 119
55 130 2 6 17 40 34 76 17 36 31 69 31 72 0 5 36 89 74 172 46 99 64 144 58
149 -3 3 0 6 6 6 7 0 12 6 12 14 0 8 6 27 14 43 17 32 74 161 81 183 4 13 27
67 50 115 13 30 27 66 31 80 3 14 10 25 15 25 5 0 9 6 9 14 0 7 14 44 31 82
16 38 36 83 44 99 7 17 63 147 125 290 61 143 120 279 131 302 10 24 19 45 19
48 0 2 13 33 30 67 16 34 30 65 30 69 0 4 16 43 35 86 20 43 40 87 44 98 5 11
19 43 32 70 12 28 24 55 25 60 2 10 96 227 134 309 11 25 20 47 20 49 0 3 10
26 22 53 12 27 21 52 20 57 -1 4 3 7 8 7 6 0 10 6 10 14 0 18 41 110 52 117 5
3 9 8 7 10 -4 6 24 79 31 79 3 0 6 8 7 18 0 13 100 247 202 477 5 11 16 36 24
55 8 19 24 55 35 80 11 25 48 110 82 190 34 80 70 164 81 187 10 24 19 47 19
53 0 5 5 10 10 10 6 0 9 3 8 8 -2 4 6 27 16 52 11 25 20 47 21 50 1 3 13 31
28 64 15 32 27 60 27 62 0 2 9 23 20 47 10 23 37 83 58 134 l40 91 -27 -4
c-14 -2 -55 -11 -91 -19 -36 -8 -78 -16 -95 -19 -16 -3 -41 -8 -55 -11 -14 -4
-38 -8 -55 -11 -16 -3 -46 -9 -65 -14 -19 -5 -51 -12 -70 -15 -19 -3 -55 -11
-80 -16 -25 -6 -55 -13 -67 -15 -33 -6 -75 -14 -98 -19 -11 -3 -31 -7 -45 -10
-14 -2 -38 -8 -55 -11 -16 -4 -39 -8 -50 -10 -11 -1 -20 -3 -20 -4 0 -2 -32
-9 -65 -14 -14 -2 -32 -6 -40 -9 -8 -3 -28 -8 -45 -10 -36 -6 -68 -13 -155
-32 -36 -8 -81 -17 -100 -19 -57 -9 -221 -45 -231 -52 -5 -3 -7 -10 -4 -15 4
-5 1 -9 -4 -9 -6 0 -11 -6 -11 -14 0 -12 -18 -59 -50 -131 -5 -11 -21 -49 -35
-85 -14 -36 -30 -74 -35 -85 -5 -11 -30 -72 -55 -135 -26 -63 -53 -128 -61
-144 -8 -16 -14 -33 -14 -38 0 -5 -11 -34 -25 -64 -14 -30 -25 -57 -25 -60 0
-3 -8 -24 -19 -47 -10 -23 -37 -87 -59 -142 -75 -187 -134 -330 -153 -372 -10
-23 -19 -47 -19 -53 0 -5 -4 -18 -10 -28 -5 -9 -16 -33 -24 -52 -8 -19 -22
-53 -32 -75 -9 -22 -18 -42 -18 -45 -5 -20 -63 -159 -73 -175 -6 -11 -13 -24
-14 -30 -1 -5 -6 -21 -12 -35 -5 -14 -11 -29 -13 -35 -4 -16 -123 -305 -145
-352 -10 -24 -19 -46 -19 -49 0 -3 -7 -20 -14 -37 -8 -18 -45 -106 -82 -197
-36 -91 -71 -174 -77 -185 -6 -11 -12 -26 -13 -33 -1 -8 -6 -21 -10 -30 -4 -9
-8 -19 -8 -22 -1 -3 -8 -16 -16 -30 -7 -14 -12 -25 -11 -25 3 0 -11 -38 -57
-147 -55 -131 -64 -156 -62 -164 1 -4 -2 -10 -7 -13 -4 -3 -23 -44 -42 -91
-18 -47 -39 -98 -46 -115 -7 -16 -23 -57 -36 -90 -13 -33 -28 -63 -34 -67 -5
-4 -7 -8 -3 -8 3 0 -9 -37 -29 -82 -52 -124 -53 -128 -45 -128 4 0 2 -4 -3 -8
-6 -4 -30 -56 -54 -117 -24 -60 -55 -134 -68 -163 -12 -29 -23 -56 -23 -60 -1
-4 -9 -25 -20 -47 -11 -22 -19 -44 -20 -48 0 -5 -11 -33 -25 -63 -14 -30 -25
-61 -25 -69 0 -8 -4 -15 -10 -15 -5 0 -10 -7 -10 -15 0 -9 -9 -34 -19 -56 -11
-22 -23 -53 -26 -69 -4 -17 -11 -30 -16 -30 -5 0 -9 -6 -9 -14 0 -24 -43 -117
-51 -109 -4 4 -21 44 -39 88 -17 44 -37 93 -45 110 -11 26 -25 60 -30 75 -1 3
-7 16 -12 30 -6 14 -46 108 -88 210 -42 102 -82 196 -88 210 -6 14 -11 27 -12
30 -1 3 -7 17 -13 32 -6 15 -27 67 -47 115 -20 48 -42 102 -49 118 -8 17 -58
136 -111 265 -53 129 -103 249 -110 265 -7 17 -23 54 -35 84 -11 30 -29 73
-39 95 -11 23 -33 77 -50 121 -18 44 -39 95 -48 115 -8 19 -19 44 -23 55 -4
11 -15 36 -23 55 -15 34 -61 145 -107 260 -25 62 -40 97 -65 155 -29 68 -33
78 -61 145 -14 36 -31 76 -37 90 -6 14 -11 27 -12 30 -8 24 -27 68 -35 82 -6
10 -10 25 -10 33 0 8 -5 15 -12 15 -6 0 -9 3 -6 6 3 3 -18 62 -48 132 -30 69
-54 132 -54 139 0 7 -4 13 -10 13 -5 0 -10 11 -10 25 0 14 -4 25 -10 25 -5 0
-10 7 -10 15 0 8 -4 23 -9 33 -16 34 -40 89 -81 192 -24 58 -53 130 -66 160
-13 30 -41 100 -64 155 -23 55 -47 114 -55 130 -7 17 -23 55 -35 85 -12 30
-27 66 -33 80 -6 14 -11 27 -12 30 -1 3 -6 16 -12 30 -6 14 -28 66 -48 115
-35 84 -55 133 -76 180 -8 19 -30 74 -34 85 -26 76 -66 150 -82 152 -10 0 -22
2 -28 3 -5 1 -26 5 -45 8 -19 4 -46 9 -60 12 -14 2 -36 6 -50 9 -24 5 -84 15
-125 21 -40 6 -90 16 -105 20 -8 2 -33 6 -55 10 -22 3 -78 12 -125 20 -47 9
-96 17 -110 19 -14 3 -25 5 -25 6 0 1 -16 3 -35 6 -19 2 -71 11 -115 19 -44 8
-96 17 -115 20 -19 3 -42 8 -50 10 -8 2 -33 7 -55 10 -117 19 -159 26 -175 30
-8 3 -33 7 -55 10 -67 10 -107 18 -167 31 -16 3 -28 1 -28 -5z"/>
<path d="M13810 15339 c0 -14 -4 -29 -9 -34 -14 -15 -91 -195 -83 -195 4 0 2
-4 -3 -8 -6 -4 -19 -27 -29 -52 -10 -25 -27 -61 -37 -81 -10 -20 -16 -39 -12
-43 3 -3 1 -6 -5 -6 -7 0 -12 -6 -12 -14 0 -12 -19 -59 -71 -173 -18 -39 -40
-90 -44 -103 -2 -5 -26 -59 -50 -115 -8 -16 -23 -52 -35 -80 -12 -27 -25 -59
-30 -70 -5 -11 -18 -40 -28 -65 -11 -25 -39 -90 -63 -145 -24 -55 -44 -102
-44 -105 0 -3 -13 -31 -28 -62 -15 -31 -27 -59 -27 -62 0 -3 -12 -31 -26 -63
-15 -32 -33 -73 -40 -90 -19 -44 -37 -86 -69 -158 -15 -33 -28 -64 -29 -70 -1
-5 -15 -37 -30 -70 -15 -33 -40 -89 -54 -125 -14 -36 -30 -68 -36 -72 -6 -4
-7 -8 -2 -8 4 0 2 -10 -6 -22 -8 -13 -21 -41 -28 -63 -7 -22 -16 -45 -20 -50
-5 -6 -17 -33 -29 -61 -11 -28 -29 -71 -40 -95 -23 -51 -171 -394 -176 -409
-1 -3 -10 -23 -19 -45 -10 -22 -34 -76 -53 -120 -45 -102 -56 -129 -57 -135
-1 -3 -13 -30 -27 -60 -30 -64 -94 -213 -94 -220 0 -3 -3 -10 -7 -15 -4 -6
-28 -60 -53 -120 -68 -159 -68 -159 -67 -167 1 -5 -3 -8 -8 -8 -6 0 -10 -8
-10 -18 0 -10 -7 -27 -15 -38 -8 -10 -15 -24 -15 -30 0 -6 -10 -33 -22 -60
-12 -27 -23 -51 -23 -54 -1 -3 -16 -36 -33 -73 -18 -38 -32 -72 -32 -75 -1 -4
-9 -25 -20 -47 -11 -22 -19 -46 -20 -52 0 -7 -4 -13 -10 -13 -5 0 -9 -4 -7 -8
2 -7 -6 -27 -68 -167 -12 -27 -28 -67 -36 -87 -7 -21 -17 -38 -21 -38 -4 0 -7
-3 -6 -7 1 -5 -6 -26 -16 -48 -10 -22 -19 -44 -20 -50 -1 -5 -13 -32 -25 -60
-87 -194 -99 -223 -93 -229 3 -3 0 -6 -6 -6 -7 0 -12 -5 -12 -11 0 -6 -6 -25
-14 -42 -15 -34 -48 -108 -51 -117 -2 -6 -3 -9 -100 -230 -42 -96 -78 -179
-79 -185 -4 -15 -34 -84 -60 -140 -34 -73 -85 -190 -88 -205 -1 -5 -30 -69
-78 -175 -9 -22 -43 -101 -75 -175 -31 -74 -65 -153 -75 -175 -34 -76 -57
-130 -71 -167 -7 -21 -17 -38 -21 -38 -4 0 -7 -3 -6 -7 1 -8 -13 -48 -32 -88
-5 -11 -18 -40 -28 -65 -11 -25 -56 -128 -100 -230 -44 -102 -92 -214 -107
-250 -15 -36 -32 -74 -38 -85 -6 -11 -12 -29 -14 -39 -2 -11 -9 -26 -15 -34
-7 -8 -13 -19 -14 -26 -1 -7 -13 -37 -26 -67 -14 -30 -36 -76 -48 -104 -13
-27 -23 -56 -23 -62 0 -7 -4 -13 -9 -13 -4 0 -8 -6 -8 -12 0 -7 -27 -73 -59
-146 -33 -73 -60 -135 -60 -137 -1 -3 -12 -27 -25 -54 -13 -28 -22 -52 -19
-55 4 -4 25 -1 73 9 8 2 15 4 15 5 0 2 33 9 70 14 17 2 53 10 80 16 28 6 61
14 75 16 14 3 68 14 120 24 52 11 106 22 120 25 14 2 45 9 70 16 25 6 54 12
65 14 24 3 71 13 105 21 14 3 34 7 45 8 11 2 20 4 20 5 0 1 11 4 25 6 14 2 81
15 150 30 69 14 136 28 150 30 14 3 45 9 70 15 25 6 56 13 70 15 14 2 36 7 50
10 14 3 36 8 50 10 59 10 73 15 86 32 7 10 14 23 14 29 0 6 10 33 22 60 12 27
23 51 23 54 2 8 16 43 25 65 5 11 25 61 46 110 20 50 42 104 49 120 7 17 50
122 95 235 46 113 87 209 91 214 5 6 9 16 9 23 0 7 11 36 23 65 13 29 34 80
47 113 13 33 26 65 30 70 4 6 15 33 25 60 10 28 26 68 35 90 10 22 46 110 80
195 34 85 67 161 72 168 6 6 8 12 5 12 -3 0 14 45 38 100 24 55 41 100 38 100
-3 0 4 15 15 33 10 19 25 51 32 73 7 21 21 57 31 79 10 22 32 76 49 120 34 86
56 138 70 170 5 11 25 58 44 105 19 47 42 103 52 125 10 22 19 46 20 53 1 8 9
28 17 45 8 18 29 68 47 112 18 44 38 94 45 110 8 17 23 55 34 85 12 30 26 64
31 75 5 11 26 61 46 110 47 118 102 251 121 294 8 18 16 39 18 45 1 6 7 22 13
36 67 158 122 296 122 307 0 7 4 13 10 13 5 0 9 3 8 8 0 4 3 16 7 27 5 11 39
97 77 190 167 411 211 514 219 509 5 -3 9 -13 9 -23 0 -10 7 -24 15 -31 9 -7
14 -19 11 -27 -3 -7 -1 -13 4 -13 6 0 10 -5 10 -12 0 -6 25 -73 56 -147 74
-179 82 -199 105 -247 10 -23 19 -49 19 -58 0 -9 5 -16 10 -16 6 0 10 -6 10
-13 0 -8 15 -49 34 -93 101 -239 146 -351 146 -362 0 -6 5 -12 10 -12 6 0 10
-7 10 -15 0 -8 8 -34 19 -58 28 -62 43 -105 41 -113 -1 -4 2 -10 7 -13 5 -3
20 -33 33 -66 29 -75 59 -145 71 -167 5 -10 9 -25 9 -33 0 -8 4 -15 8 -15 5 0
9 -6 9 -12 1 -13 68 -179 103 -255 11 -24 20 -47 20 -51 0 -5 6 -22 14 -38 22
-47 42 -94 77 -179 17 -44 36 -84 40 -90 5 -5 9 -19 9 -32 0 -13 5 -23 10 -23
6 0 10 -6 10 -14 0 -12 35 -99 80 -201 10 -22 29 -67 41 -100 13 -33 29 -69
36 -81 7 -11 10 -24 6 -27 -3 -4 -1 -7 5 -7 7 0 12 -6 12 -14 0 -7 8 -31 17
-52 9 -22 17 -41 18 -44 0 -3 11 -27 23 -54 12 -27 22 -52 22 -55 0 -4 11 -31
25 -59 14 -29 25 -54 25 -57 0 -4 241 -589 260 -630 5 -11 32 -76 60 -145 28
-69 57 -138 65 -155 7 -16 23 -55 35 -85 12 -30 27 -66 33 -80 6 -14 11 -27
12 -30 1 -3 6 -16 12 -30 6 -14 28 -65 48 -115 35 -84 55 -133 76 -180 10 -22
32 -77 34 -85 1 -3 9 -23 18 -44 10 -22 20 -50 23 -63 9 -35 17 -39 124 -59
46 -9 79 -14 115 -19 22 -4 49 -9 60 -12 11 -4 29 -7 40 -9 91 -11 150 -21
150 -24 0 -1 14 -4 30 -5 17 -2 44 -6 60 -10 64 -12 132 -24 165 -29 39 -6 70
-12 115 -21 17 -4 41 -8 55 -10 14 -2 25 -4 25 -5 0 -1 14 -3 30 -5 17 -2 39
-5 50 -8 11 -3 40 -8 65 -12 70 -11 93 -14 120 -20 14 -3 39 -8 55 -10 17 -3
57 -11 90 -17 33 -6 69 -12 80 -14 11 -2 35 -5 53 -9 17 -3 45 -7 61 -9 l30
-5 -18 42 c-11 23 -62 143 -116 267 -53 124 -106 245 -118 270 -11 25 -22 48
-23 53 -1 4 -3 9 -4 12 -1 3 -3 8 -4 13 -1 4 -10 23 -19 42 -9 19 -33 73 -53
120 -20 47 -45 105 -57 130 -11 25 -22 54 -24 65 -2 11 -8 22 -13 23 -6 2 -10
9 -10 16 0 7 -6 26 -14 42 -8 16 -35 79 -61 139 -26 61 -54 126 -63 145 -9 19
-17 37 -17 40 0 3 -11 27 -23 54 -12 27 -22 50 -22 52 0 2 -13 33 -30 68 -16
36 -41 94 -56 128 -14 35 -33 79 -41 98 -9 19 -23 53 -33 75 -10 22 -24 56
-33 75 -8 19 -29 69 -47 110 -18 41 -42 98 -55 125 -12 28 -26 61 -30 75 -4
14 -11 30 -15 35 -5 6 -18 35 -30 65 -12 30 -32 78 -46 108 -13 29 -35 79 -49
112 -14 33 -36 84 -50 114 -14 30 -25 62 -25 70 0 9 -4 16 -10 16 -5 0 -10 6
-10 14 0 8 -7 27 -15 43 -8 15 -22 46 -31 68 -9 22 -22 54 -30 70 -7 17 -29
68 -49 115 -20 47 -43 99 -50 115 -41 94 -48 110 -50 115 -2 6 -9 23 -59 139
-49 112 -65 149 -83 191 -8 19 -35 82 -60 140 -25 58 -55 128 -68 155 -12 28
-48 111 -80 185 -31 74 -65 153 -75 175 -20 45 -74 171 -97 225 -8 19 -18 42
-23 51 -4 8 -22 51 -40 95 -18 43 -45 106 -60 139 -16 33 -44 98 -63 145 -20
47 -44 103 -53 125 -10 22 -18 42 -19 45 -1 3 -10 23 -20 45 -19 40 -35 79
-75 170 -12 28 -27 64 -35 80 -7 17 -32 75 -55 130 -23 55 -47 106 -54 114 -6
8 -10 15 -8 15 4 1 -11 41 -36 99 -11 23 -32 71 -47 107 -15 36 -41 93 -56
128 -16 34 -29 64 -29 66 0 4 -115 273 -155 361 -7 17 -50 116 -95 220 -44
105 -92 213 -105 242 -14 28 -25 54 -25 57 0 3 -11 30 -25 60 -27 59 -48 108
-49 116 -1 3 -9 21 -18 40 -40 85 -108 249 -108 259 0 6 -4 11 -10 11 -5 0
-10 7 -10 15 0 8 -4 23 -9 33 -14 25 -51 111 -51 117 0 2 -11 28 -24 57 -47
104 -64 144 -91 208 -32 77 -45 94 -45 59z"/>
<path d="M6110 12726 c-3 -2 -25 -7 -50 -11 -47 -7 -50 -8 -90 -18 -14 -4 -38
-9 -55 -11 -16 -2 -30 -5 -30 -6 0 -1 -9 -3 -20 -4 -11 -2 -40 -7 -65 -12 -25
-4 -49 -9 -55 -10 -5 -1 -12 -3 -15 -4 -3 -1 -27 -4 -55 -5 -90 -6 -277 -20
-405 -30 -63 -6 -199 -15 -280 -20 -30 -1 -86 -5 -125 -9 -76 -6 -168 -13
-285 -22 -77 -5 -106 -7 -270 -19 -52 -3 -119 -8 -147 -11 -47 -4 -82 -7 -258
-18 -91 -6 -229 -17 -285 -22 -30 -3 -93 -7 -140 -9 -47 -2 -85 -5 -85 -6 0
-1 -18 -2 -40 -4 -22 -1 -83 -5 -135 -9 -52 -3 -117 -9 -145 -11 -27 -3 -90
-8 -140 -11 -49 -3 -108 -7 -130 -9 -22 -2 -85 -6 -140 -10 -55 -4 -118 -8
-140 -10 -22 -2 -83 -6 -135 -10 -52 -4 -113 -8 -135 -10 -91 -7 -214 -16
-280 -20 -74 -5 -151 -11 -263 -21 -37 -3 -98 -7 -137 -9 -38 -2 -70 -4 -70
-5 0 -1 -31 -3 -70 -5 -63 -4 -150 -10 -260 -20 -22 -1 -87 -6 -145 -9 -58 -4
-127 -9 -155 -11 -153 -13 -356 -28 -390 -27 -16 0 -106 3 -200 7 -93 4 -192
8 -220 9 -52 3 -73 -2 -58 -13 5 -3 24 -31 43 -61 19 -30 38 -56 42 -58 5 -2
8 -9 8 -16 0 -7 8 -21 18 -32 9 -10 30 -39 46 -64 88 -136 258 -335 347 -405
56 -44 89 -65 104 -65 8 0 15 -4 15 -9 0 -6 8 -10 18 -10 18 0 107 -9 107 -11
0 -1 15 -3 34 -6 19 -2 46 -6 60 -9 14 -3 76 -12 136 -21 61 -8 124 -17 140
-20 17 -3 41 -7 55 -9 14 -1 48 -7 75 -11 28 -4 55 -9 60 -9 6 -1 12 -3 15 -4
3 -1 23 -4 45 -6 37 -3 95 -11 140 -19 53 -10 131 -19 142 -17 7 1 13 -2 13
-6 0 -4 15 -8 33 -8 17 -1 57 -4 87 -9 30 -4 65 -9 77 -11 13 -2 42 -6 65 -10
24 -4 55 -8 71 -11 15 -2 39 -6 55 -8 15 -3 45 -7 67 -11 22 -3 54 -7 70 -10
45 -6 165 -23 210 -31 22 -3 54 -8 70 -9 17 -2 41 -6 55 -9 14 -2 48 -7 75
-11 28 -3 59 -8 70 -11 11 -3 38 -7 60 -9 22 -3 51 -6 65 -9 34 -6 95 -14 155
-22 28 -3 59 -8 70 -10 11 -3 34 -6 50 -9 146 -21 193 -28 215 -30 14 -2 39
-6 55 -9 17 -3 50 -8 75 -11 25 -3 59 -8 75 -11 30 -5 45 -7 125 -18 25 -4 72
-11 105 -16 94 -15 137 -21 175 -25 19 -1 35 -4 35 -5 0 -2 35 -8 90 -15 28
-3 61 -8 75 -10 14 -2 41 -7 60 -9 85 -13 127 -18 147 -21 13 -2 40 -6 60 -9
21 -4 52 -8 68 -10 17 -3 44 -7 60 -9 70 -12 122 -20 145 -22 14 -2 39 -5 55
-8 17 -3 53 -8 80 -12 28 -3 59 -7 70 -9 33 -6 98 -16 135 -21 19 -3 44 -7 55
-9 12 -2 48 -7 80 -11 33 -4 67 -9 75 -10 8 -1 35 -6 60 -11 25 -4 56 -8 70
-9 14 -2 25 -3 25 -4 0 -1 18 -4 40 -6 21 -3 55 -7 75 -11 19 -3 51 -8 70 -9
19 -2 35 -4 35 -5 0 -2 16 -4 35 -6 19 -2 78 -10 130 -19 52 -9 111 -17 130
-20 19 -2 51 -7 70 -10 19 -3 49 -8 65 -10 17 -2 73 -11 125 -19 52 -8 113
-17 135 -20 22 -3 51 -8 65 -10 14 -3 48 -7 75 -10 28 -3 57 -7 65 -10 8 -2
40 -8 70 -11 30 -4 64 -8 75 -10 226 -32 218 -31 275 -42 25 -5 60 -9 78 -8
17 0 32 -2 32 -5 0 -3 14 -7 31 -8 17 -1 28 2 25 6 -6 11 -28 63 -32 77 -8 29
-50 121 -59 127 -5 4 -6 8 -1 8 5 0 4 6 -2 13 -5 6 -26 53 -46 102 -21 50 -43
104 -50 120 -32 70 -57 128 -111 255 -31 74 -68 160 -82 190 -14 30 -31 71
-38 91 -7 20 -18 45 -24 55 -6 11 -52 116 -102 234 -50 118 -99 231 -107 250
-9 19 -17 38 -18 43 -1 4 -3 10 -4 15 -1 4 -2 10 -1 15 0 4 -3 7 -9 7 -5 0
-10 6 -10 14 0 8 -9 31 -19 53 -29 56 -121 278 -121 290 0 6 -3 13 -8 15 -4 2
-19 32 -33 68 -23 57 -45 81 -59 66z"/>
<path d="M15994 12422 c6 -11 28 -63 32 -77 8 -29 50 -121 59 -127 6 -4 6 -8
1 -8 -5 0 -4 -6 2 -12 5 -7 26 -53 46 -103 21 -49 43 -103 50 -120 32 -70 57
-128 111 -255 31 -74 68 -160 82 -190 14 -30 31 -71 38 -91 7 -20 18 -45 24
-55 6 -11 52 -116 102 -234 50 -118 99 -231 107 -250 9 -19 17 -38 18 -42 1
-5 3 -11 4 -15 1 -5 2 -11 1 -15 0 -5 4 -8 9 -8 6 0 10 -6 10 -14 0 -8 9 -31
19 -53 29 -56 121 -278 121 -290 0 -6 3 -13 8 -15 4 -1 19 -32 34 -68 28 -70
26 -69 108 -55 48 8 51 8 90 18 14 4 39 9 55 11 17 2 30 5 30 6 0 1 9 3 20 4
11 2 40 7 65 12 25 4 50 9 55 10 6 1 12 3 15 4 3 1 28 4 55 5 99 7 211 15 270
20 95 8 215 17 275 20 30 2 55 4 55 5 0 0 31 3 69 5 74 4 207 14 296 21 30 2
91 6 135 9 44 3 107 7 140 10 107 9 189 15 255 20 36 3 99 7 140 10 82 7 157
12 265 19 39 3 106 8 150 11 44 4 109 8 145 10 36 2 65 5 65 5 0 1 25 3 55 5
92 5 232 15 295 21 32 2 93 7 135 10 41 3 98 7 125 9 28 2 86 7 130 9 120 9
212 15 290 21 68 6 111 9 260 20 39 2 99 7 135 10 36 3 97 7 135 9 39 3 97 7
130 10 33 3 103 8 155 12 52 3 113 8 135 9 22 2 81 6 130 10 50 3 110 7 135 9
25 2 86 7 136 10 50 3 115 8 145 11 30 2 90 7 134 10 44 3 98 8 120 10 56 6
239 6 370 -1 267 -13 274 -13 254 9 -5 7 -50 73 -99 147 -49 74 -92 140 -97
145 -5 6 -22 28 -38 50 -17 22 -34 45 -40 51 -5 7 -26 31 -45 55 -91 116 -265
261 -315 264 -5 1 -32 5 -60 9 -27 4 -66 10 -85 12 -19 3 -60 9 -90 14 -30 5
-75 12 -100 15 -25 3 -56 8 -70 10 -14 2 -43 7 -65 10 -23 3 -50 7 -60 9 -11
2 -45 7 -75 11 -30 4 -64 9 -75 11 -11 2 -38 6 -60 9 -22 3 -51 7 -65 9 -27 5
-69 11 -145 21 -27 4 -61 9 -75 11 -14 2 -41 7 -60 9 -19 3 -44 7 -55 10 -11
2 -49 7 -85 11 -36 3 -68 8 -72 10 -4 3 -26 7 -50 10 -24 2 -72 9 -108 15 -36
5 -78 11 -95 13 -16 2 -46 7 -65 10 -73 12 -116 18 -150 21 -19 2 -48 6 -65 9
-16 4 -46 9 -65 11 -19 3 -65 10 -101 16 -37 6 -82 12 -100 14 -19 2 -34 4
-34 5 0 1 -18 3 -40 5 -22 3 -67 9 -100 15 -33 6 -78 12 -100 15 -22 3 -49 6
-60 9 -11 2 -41 6 -66 10 -25 4 -57 9 -70 11 -13 2 -44 6 -69 9 -25 3 -54 8
-66 10 -12 2 -45 7 -75 11 -30 4 -74 10 -99 15 -25 4 -52 8 -60 9 -15 0 -23 2
-138 20 -37 6 -83 13 -102 16 -19 3 -53 7 -75 10 -22 3 -71 11 -110 17 -38 6
-81 12 -95 14 -14 2 -38 6 -55 8 -16 2 -50 7 -75 9 -25 3 -52 8 -60 11 -8 2
-37 7 -65 10 -27 3 -61 8 -75 10 -14 2 -46 7 -71 10 -25 4 -57 9 -70 11 -13 2
-40 6 -59 9 -19 3 -53 7 -75 11 -69 10 -109 16 -150 21 -22 3 -49 7 -61 9 -12
3 -39 7 -60 10 -21 3 -68 10 -104 15 -36 5 -83 12 -105 15 -22 3 -56 8 -75 12
-19 4 -46 8 -60 9 -14 1 -25 2 -25 3 0 1 -18 4 -40 6 -21 3 -55 7 -75 11 -19
3 -51 8 -70 9 -19 2 -35 4 -35 5 0 2 -16 4 -35 6 -19 2 -78 10 -130 19 -52 9
-111 17 -130 20 -19 2 -51 7 -70 10 -19 3 -48 8 -65 10 -16 2 -73 11 -125 19
-52 8 -113 17 -135 20 -22 3 -51 8 -65 10 -14 3 -48 7 -75 10 -28 3 -57 7 -65
10 -8 2 -40 8 -70 11 -30 4 -64 8 -75 10 -226 32 -218 31 -275 42 -25 5 -60 9
-77 8 -18 0 -33 2 -33 5 0 3 -14 7 -31 8 -17 1 -28 -2 -25 -6z"/>
</g>
</svg>
