<svg xmlns="http://www.w3.org/2000/svg" viewBox="0 0 748.54932 207.02599"><defs><style>.cls-1{fill:#f2f2f2;}.cls-2{fill:#61c7ff;}</style></defs><title>MainLogo</title><g id="Layer_2" data-name="Layer 2"><g id="Layer_1-2" data-name="Layer 1"><path class="cls-1" d="M230.62849,199.52637,144.36921,0l38.80811,6.80273L231.731,123.73926,279.17732,7.80273,316.88777,0Z"/><path class="cls-1" d="M176.3565,126.28241,153.55644,73.244,142.88669,75.327l-130.2865,9.5094L0,84.34954c5.19869,8.16458,10.42255,15.76437,15.8743,18.25715Z"/><path class="cls-2" d="M345.70039,7.49963,431.95966,207.026l-38.8081-6.80273L344.59785,83.28673,297.15156,199.22326,259.44111,207.026Z"/><path class="cls-2" d="M399.97238,80.74358,422.77243,133.782l10.66976-2.08306,130.2865-9.5094,12.60018.48687c-5.19868-8.16458-10.42255-15.76437-15.8743-18.25714Z"/><path class="cls-1" d="M530.2251,12.009c-39.20532,0-70.83233,21.73883-85.06659,54.6723l33.2486,4.83673c10.23554-17.653,28.40649-29.48511,51.818-29.48511,37.13477,0,61.10059,29.76025,61.10059,65.31494,0,35.5542-23.96582,65.31494-61.10059,65.31494-21.644,0-38.79736-10.12146-49.35211-25.59826L445.90406,149.69c14.57208,31.99237,45.78509,52.99621,84.321,52.99621,53.72657,0,93.23145-40.82178,93.23145-95.33838C623.45655,52.83077,583.95167,12.009,530.2251,12.009Z"/><path class="cls-1" d="M696.44581,94.38351c-25.52051-9.57032-40.1416-14.6211-40.1416-30.83741,0-12.49414,12.49414-22.33056,28.44433-22.33056,23.12793,0,38.54688,21.00146,38.54688,21.00146l22.06445-21.79883S723.561,10.91036,684.74854,10.91036c-29.61548,0-50.42261,16.43219-57.85815,36.30976,12.02356,15.68115,19.13366,35.67871,19.543,58.07867,10.54589,7.66,23.44177,12.99426,35.657,17.26343,22.06445,7.70947,34.02734,13.292,34.02734,28.97656,0,15.15283-16.48242,21.53272-32.43262,21.53272-28.17871,0-44.1289-27.91309-44.1289-27.91309l-.11743.09912a91.34357,91.34357,0,0,1-17.78687,28.44623c9.30737,11.18909,29.58472,29.6734,62.0332,29.6734,35.09082,0,64.86426-18.07715,64.86426-51.83838C748.54932,117.77706,724.89014,105.01681,696.44581,94.38351Z"/></g></g></svg>