<svg id="Layer_1" data-name="Layer 1" xmlns="http://www.w3.org/2000/svg" viewBox="0 0 581.99 220.87"><defs><style>.cls-1{fill:#f4f4f5;}.cls-2{fill:#a21d21;}</style></defs><path class="cls-1" d="M46.67,108c-15.74-5.5-33.46-14-33.46-33.91,0-15.13,13.44-30.26,35-30.26,22.31,0,34.84,17,34.84,17L70.35,73.31S61.49,61.24,48.19,61.24c-9.16,0-16.34,5.65-16.34,12.84,0,9.32,8.4,12.22,23.07,17.72,16.34,6.11,29.94,13.44,29.94,32.85s-17.11,29.79-37.28,29.79c-26.73,0-39.11-21.85-39.11-21.85L22.22,121s9.17,16,25.36,16c9.17,0,18.64-3.66,18.64-12.37C66.22,115.63,59.35,112.43,46.67,108Z"/><path class="cls-1" d="M122,114.11v38.5H103.65v-107H140c21.23,0,35.44,14.67,35.44,34.22S161.25,114.11,140,114.11h-9.63V96.69h7.33c12.53,0,19.1-6.72,19.1-16.81s-6.57-16.8-19.1-16.8H122v51Z"/><path class="cls-1" d="M239.33,110.44,223.28,68.73l-16,41.71-6.57,16.81-9.78,25.36H172.41L214,45.66H232.6l41.56,107H255.67l-9.77-25.36Z"/><path class="cls-1" d="M393.79,93.63l38.2-48H454.9L413,98.22l47.06,54.39H435.81l-42-48.28v48.28H375.46v-107h18.33Z"/><path class="cls-1" d="M313.12,94.85h6.11c11.77,0,19.1-5.34,19.1-15.89S331,63.08,319.23,63.08H304.72v89.53H286.38v-107h35.14C342.76,45.66,357,59.41,357,79c0,16.05-8.56,28.27-23.83,32.09l26.73,41.56H338.48l-25.36-40.34Z"/><path class="cls-2" d="M539.56,49.87,519,52.66A18.54,18.54,0,0,0,503.44,66.8L498.7,87l-2.8-20.55a18.52,18.52,0,0,0-14.14-15.56l-20.19-4.75,20.55-2.79A18.55,18.55,0,0,0,497.69,29.2L502.43,9l2.79,20.55a18.56,18.56,0,0,0,14.14,15.56Z"/><path class="cls-2" d="M501.63,25.6l.6,4.37a21.69,21.69,0,0,0,16.44,18.09l4.29,1-4.37.59A21.71,21.71,0,0,0,500.5,66.11l-1,4.29L498.9,66a21.72,21.72,0,0,0-16.45-18.1l-4.29-1,4.37-.6a21.69,21.69,0,0,0,18.1-16.44l1-4.29M502.43,9,497.69,29.2a18.55,18.55,0,0,1-15.57,14.14l-20.55,2.79,20.19,4.75A18.52,18.52,0,0,1,495.9,66.44L498.7,87l4.74-20.19A18.54,18.54,0,0,1,519,52.66l20.56-2.79-20.2-4.75a18.56,18.56,0,0,1-14.14-15.56L502.43,9Z"/><path class="cls-2" d="M549.72,98l-1.3,4.21a21.7,21.7,0,0,0,7.29,23.34l3.47,2.72L555,127a21.59,21.59,0,0,0-23.34,7.29l-2.72,3.47,1.3-4.21a21.7,21.7,0,0,0-7.29-23.34l-3.47-2.72,4.21,1.3A21.59,21.59,0,0,0,547,101.45L549.72,98m7.71-14.72L544.62,99.58a18.53,18.53,0,0,1-20.07,6.27l-19.82-6.12,16.32,12.81a18.53,18.53,0,0,1,6.27,20.06l-6.12,19.82L534,136.1A18.53,18.53,0,0,1,548.6,129a18.81,18.81,0,0,1,5.48.82L573.9,136l-16.32-12.81a18.56,18.56,0,0,1-6.28-20.07l6.13-19.82Z"/><path class="cls-1" d="M32,180.9v6.79H15.61V205.6H8.47V163.94H33.16v6.79H15.61V180.9Z"/><path class="cls-1" d="M47,163.94v34.87H64.69v6.79H39.82V163.94Z"/><path class="cls-1" d="M77.54,163.94V205.6H70.4V163.94Z"/><path class="cls-1" d="M111.28,199.17a9.89,9.89,0,0,0,3.81-1.55v-8.8h-9.47v-6.67h16.49v18.92a20,20,0,0,1-6.73,3.81,25.38,25.38,0,0,1-8.51,1.43,22.89,22.89,0,0,1-8.71-1.64,21.64,21.64,0,0,1-7-4.52,20.87,20.87,0,0,1-4.68-6.84,22.62,22.62,0,0,1,0-17.11A21.08,21.08,0,0,1,91,169.39a20.61,20.61,0,0,1,6.84-4.52,22.13,22.13,0,0,1,8.54-1.64,21.81,21.81,0,0,1,4.94.54,24.12,24.12,0,0,1,4.28,1.39,19.4,19.4,0,0,1,3.54,2,15.82,15.82,0,0,1,2.65,2.32l-4.88,4.76a13.7,13.7,0,0,0-4.25-3,15.08,15.08,0,0,0-12-.12,14.22,14.22,0,0,0-4.56,3.22,14.77,14.77,0,0,0-3,4.73,15.17,15.17,0,0,0-1.07,5.68,15.15,15.15,0,0,0,4.16,10.5,14.48,14.48,0,0,0,4.7,3.25,15.14,15.14,0,0,0,6.07,1.18A21.27,21.27,0,0,0,111.28,199.17Z"/><path class="cls-1" d="M161.67,163.94V205.6h-7.14V187.69H136.74V205.6H129.6V163.94h7.14v17h17.79v-17Z"/><path class="cls-1" d="M166.9,170.73v-6.79H197v6.79H185.52V205.6h-7.14V170.73Z"/><path class="cls-1" d="M246.8,164.87a20.32,20.32,0,0,1,6.7,4.52,20.54,20.54,0,0,1,4.4,6.81,24,24,0,0,1,0,17.14,20.19,20.19,0,0,1-11.1,11.33,22.36,22.36,0,0,1-16.81,0,20.29,20.29,0,0,1-11.06-11.33,24,24,0,0,1,0-17.14A20.29,20.29,0,0,1,230,164.87a22.36,22.36,0,0,1,16.81,0Zm-2.67,33.47a13.4,13.4,0,0,0,4.34-3.19,14.36,14.36,0,0,0,2.77-4.67,17.12,17.12,0,0,0,0-11.42,14.36,14.36,0,0,0-2.77-4.67,13.58,13.58,0,0,0-20.11,0,14.18,14.18,0,0,0-2.77,4.67,17.12,17.12,0,0,0,0,11.42,14.18,14.18,0,0,0,2.77,4.67,13.92,13.92,0,0,0,15.77,3.19Z"/><path class="cls-1" d="M280.06,163.94a15.15,15.15,0,0,1,5.65,1,12.79,12.79,0,0,1,4.37,2.79,12.22,12.22,0,0,1,2.8,4.23,14.79,14.79,0,0,1,0,10.59,12.27,12.27,0,0,1-2.8,4.22,12.82,12.82,0,0,1-4.37,2.8,15.35,15.35,0,0,1-5.65,1h-7v15H265.9V163.94ZM284.73,182a7,7,0,0,0,0-9.52,7.8,7.8,0,0,0-5.57-1.78H273v13.09h6.12A7.8,7.8,0,0,0,284.73,182Z"/><path class="cls-1" d="M323.37,180.84v6.79H306.71v11.18h18.44v6.79H299.57V163.94H324.8v6.79H306.71v10.11Z"/><path class="cls-1" d="M345.74,163.94a16,16,0,0,1,5.65,1,12.54,12.54,0,0,1,4.37,2.67,11.67,11.67,0,0,1,2.8,4.14,14.07,14.07,0,0,1,1,5.32,13.12,13.12,0,0,1-2.41,7.92,11.66,11.66,0,0,1-6.87,4.46l10.41,16.19h-8.33l-9.87-15.71h-3.28V205.6h-7.14V163.94Zm4.55,17.62a6.42,6.42,0,0,0,0-9.29,8.66,8.66,0,0,0-5.44-1.54h-5.66V183.1h5.66A8.66,8.66,0,0,0,350.29,181.56Z"/><path class="cls-1" d="M386.13,163.94l16.19,41.66h-7.2l-3.81-9.88H373.7l-3.81,9.88h-7.2l16.19-41.66Zm2.62,25.23-6.25-16.24-6.24,16.24Z"/><path class="cls-1" d="M403.5,170.73v-6.79h30.11v6.79H422.13V205.6H415V170.73Z"/><path class="cls-1" d="M446.82,163.94V205.6h-7.14V163.94Z"/><path class="cls-1" d="M483.53,164.87a20.28,20.28,0,0,1,6.69,4.52,20.54,20.54,0,0,1,4.4,6.81,24,24,0,0,1,0,17.14,20.21,20.21,0,0,1-11.09,11.33,22.36,22.36,0,0,1-16.81,0,20.26,20.26,0,0,1-11.07-11.33,24,24,0,0,1,0-17.14,20.26,20.26,0,0,1,11.07-11.33,22.36,22.36,0,0,1,16.81,0Zm-2.68,33.47a13.4,13.4,0,0,0,4.34-3.19,14.36,14.36,0,0,0,2.77-4.67,17.12,17.12,0,0,0,0-11.42,14.36,14.36,0,0,0-2.77-4.67,13.58,13.58,0,0,0-20.11,0,14.36,14.36,0,0,0-2.77,4.67,17.12,17.12,0,0,0,0,11.42,14.36,14.36,0,0,0,2.77,4.67,13.92,13.92,0,0,0,15.77,3.19Z"/><path class="cls-1" d="M529.87,192.62V163.94H537V205.6h-6.43L509.76,177V205.6h-7.14V163.94h6.43Z"/><path class="cls-1" d="M566.07,192.27a5.73,5.73,0,0,0-1.58-1.61,11.56,11.56,0,0,0-2.41-1.28c-.93-.38-2-.76-3.06-1.16-1.51-.55-3-1.19-4.58-1.9a20.14,20.14,0,0,1-4.2-2.59,12.9,12.9,0,0,1-3.06-3.54,9.39,9.39,0,0,1-1.19-4.82,11.46,11.46,0,0,1,1-4.58,11.73,11.73,0,0,1,2.71-3.87,13.57,13.57,0,0,1,4.25-2.68,14.9,14.9,0,0,1,5.6-1,16.69,16.69,0,0,1,4.52.59,18.63,18.63,0,0,1,3.81,1.55,17.13,17.13,0,0,1,3.06,2.14,23.6,23.6,0,0,1,2.29,2.32l-4.94,4.88a16,16,0,0,0-1.6-1.72,11.08,11.08,0,0,0-2-1.49,12.45,12.45,0,0,0-2.38-1.07,8.3,8.3,0,0,0-2.67-.42,7.07,7.07,0,0,0-4.5,1.43,4.47,4.47,0,0,0-1.81,3.69,3.93,3.93,0,0,0,.77,2.44,7,7,0,0,0,2.06,1.76,18.34,18.34,0,0,0,2.88,1.33l3.27,1.25c1.55.6,3,1.24,4.44,1.94a16.6,16.6,0,0,1,3.72,2.47,10.67,10.67,0,0,1,2.55,3.39,10.44,10.44,0,0,1,1,4.64,11.39,11.39,0,0,1-1.16,5.24,10.94,10.94,0,0,1-3.13,3.74,13.67,13.67,0,0,1-4.52,2.24,19.53,19.53,0,0,1-5.41.74,18.44,18.44,0,0,1-5.39-.74,18.69,18.69,0,0,1-4.34-1.94,15.41,15.41,0,0,1-3.36-2.74,22.72,22.72,0,0,1-2.44-3.09l5.35-4.52a16.9,16.9,0,0,0,1.7,2.23,12.93,12.93,0,0,0,2.23,2,11.54,11.54,0,0,0,2.79,1.46,10,10,0,0,0,3.46.57,11.31,11.31,0,0,0,2.46-.27,7.84,7.84,0,0,0,2.24-.86,4.83,4.83,0,0,0,1.63-1.58,4.28,4.28,0,0,0,.63-2.35A4,4,0,0,0,566.07,192.27Z"/></svg>